<mxfile host="app.diagrams.net" agent="Mozilla/5.0 (Windows NT 10.0; Win64; x64) AppleWebKit/537.36 (KHTML, like Gecko) Chrome/129.0.0.0 Safari/537.36" version="24.7.16">
  <diagram name="Página-1" id="Ig_WoSkbEcp5Hc7t_jGq">
    <mxGraphModel grid="1" page="1" gridSize="10" guides="1" tooltips="1" connect="1" arrows="1" fold="1" pageScale="1" pageWidth="827" pageHeight="1169" math="0" shadow="0">
      <root>
        <mxCell id="0" />
        <mxCell id="1" parent="0" />
        <mxCell id="IZim5jHVXSEnmy_kidDX-44" value="" style="whiteSpace=wrap;html=1;" vertex="1" parent="1">
          <mxGeometry x="-110" y="-220" width="1050" height="800" as="geometry" />
        </mxCell>
        <mxCell id="IZim5jHVXSEnmy_kidDX-15" value="" style="whiteSpace=wrap;html=1;" vertex="1" parent="1">
          <mxGeometry x="80" y="-130" width="710" height="60" as="geometry" />
        </mxCell>
        <mxCell id="0ns7jVy8uNWmFmqhOqc3-1" value="Usuario" style="shape=umlActor;verticalLabelPosition=bottom;verticalAlign=top;html=1;outlineConnect=0;fillColor=#B9E0A5;" vertex="1" parent="1">
          <mxGeometry x="-40" y="140" width="70" height="130" as="geometry" />
        </mxCell>
        <mxCell id="0ns7jVy8uNWmFmqhOqc3-2" value="" style="whiteSpace=wrap;html=1;" vertex="1" parent="1">
          <mxGeometry x="80" y="-70" width="710" height="610" as="geometry" />
        </mxCell>
        <mxCell id="IZim5jHVXSEnmy_kidDX-3" style="edgeStyle=orthogonalEdgeStyle;rounded=0;orthogonalLoop=1;jettySize=auto;html=1;exitX=1;exitY=0.5;exitDx=0;exitDy=0;entryX=0;entryY=0.5;entryDx=0;entryDy=0;" edge="1" parent="1" source="0ns7jVy8uNWmFmqhOqc3-3" target="IZim5jHVXSEnmy_kidDX-1">
          <mxGeometry relative="1" as="geometry" />
        </mxCell>
        <mxCell id="0ns7jVy8uNWmFmqhOqc3-3" value="Ingresar credenciales(Usuario - contraseña)" style="ellipse;whiteSpace=wrap;html=1;fillColor=#B9E0A5;" vertex="1" parent="1">
          <mxGeometry x="130" y="-30" width="130" height="80" as="geometry" />
        </mxCell>
        <mxCell id="0ns7jVy8uNWmFmqhOqc3-4" value="&lt;font style=&quot;font-size: 24px;&quot;&gt;Login&amp;nbsp;&lt;/font&gt;" style="text;html=1;align=center;verticalAlign=middle;resizable=0;points=[];autosize=1;strokeColor=none;fillColor=none;" vertex="1" parent="1">
          <mxGeometry x="390" y="-120" width="90" height="40" as="geometry" />
        </mxCell>
        <mxCell id="IZim5jHVXSEnmy_kidDX-27" style="edgeStyle=orthogonalEdgeStyle;rounded=0;orthogonalLoop=1;jettySize=auto;html=1;exitX=1;exitY=0.5;exitDx=0;exitDy=0;" edge="1" parent="1" source="IZim5jHVXSEnmy_kidDX-1" target="IZim5jHVXSEnmy_kidDX-26">
          <mxGeometry relative="1" as="geometry" />
        </mxCell>
        <mxCell id="IZim5jHVXSEnmy_kidDX-1" value="Cliquear botón de &quot;Inicio de sesión&quot;" style="ellipse;whiteSpace=wrap;html=1;fillColor=#B9E0A5;" vertex="1" parent="1">
          <mxGeometry x="330" y="-30" width="120" height="80" as="geometry" />
        </mxCell>
        <mxCell id="IZim5jHVXSEnmy_kidDX-4" value="Ingresa a su perfil de usuario" style="ellipse;whiteSpace=wrap;html=1;fillColor=#B9E0A5;" vertex="1" parent="1">
          <mxGeometry x="330" y="90" width="120" height="80" as="geometry" />
        </mxCell>
        <mxCell id="IZim5jHVXSEnmy_kidDX-6" style="rounded=0;orthogonalLoop=1;jettySize=auto;html=1;entryX=0;entryY=0.5;entryDx=0;entryDy=0;" edge="1" parent="1" source="0ns7jVy8uNWmFmqhOqc3-1" target="0ns7jVy8uNWmFmqhOqc3-3">
          <mxGeometry relative="1" as="geometry">
            <mxPoint x="30" y="140" as="sourcePoint" />
          </mxGeometry>
        </mxCell>
        <mxCell id="IZim5jHVXSEnmy_kidDX-11" style="edgeStyle=orthogonalEdgeStyle;rounded=0;orthogonalLoop=1;jettySize=auto;html=1;exitX=1;exitY=0.5;exitDx=0;exitDy=0;" edge="1" parent="1" source="IZim5jHVXSEnmy_kidDX-7" target="IZim5jHVXSEnmy_kidDX-8">
          <mxGeometry relative="1" as="geometry" />
        </mxCell>
        <mxCell id="IZim5jHVXSEnmy_kidDX-7" value="Pulsar botón de &quot;Crear cuenta&quot;" style="ellipse;whiteSpace=wrap;html=1;fillColor=#B9E0A5;" vertex="1" parent="1">
          <mxGeometry x="130" y="260" width="120" height="80" as="geometry" />
        </mxCell>
        <mxCell id="IZim5jHVXSEnmy_kidDX-40" style="edgeStyle=none;rounded=0;orthogonalLoop=1;jettySize=auto;html=1;exitX=1;exitY=0.5;exitDx=0;exitDy=0;entryX=0;entryY=0.5;entryDx=0;entryDy=0;" edge="1" parent="1" source="IZim5jHVXSEnmy_kidDX-8" target="IZim5jHVXSEnmy_kidDX-38">
          <mxGeometry relative="1" as="geometry" />
        </mxCell>
        <mxCell id="IZim5jHVXSEnmy_kidDX-8" value="Llenar formulario de registro" style="ellipse;whiteSpace=wrap;html=1;fillColor=#B9E0A5;" vertex="1" parent="1">
          <mxGeometry x="310" y="260" width="120" height="80" as="geometry" />
        </mxCell>
        <mxCell id="IZim5jHVXSEnmy_kidDX-43" style="edgeStyle=none;rounded=0;orthogonalLoop=1;jettySize=auto;html=1;exitX=1;exitY=0.5;exitDx=0;exitDy=0;entryX=0;entryY=0.5;entryDx=0;entryDy=0;" edge="1" parent="1" source="IZim5jHVXSEnmy_kidDX-9" target="IZim5jHVXSEnmy_kidDX-10">
          <mxGeometry relative="1" as="geometry" />
        </mxCell>
        <mxCell id="IZim5jHVXSEnmy_kidDX-9" value="Cliquear botón de &quot;Crear&quot;" style="ellipse;whiteSpace=wrap;html=1;fillColor=#B9E0A5;" vertex="1" parent="1">
          <mxGeometry x="440" y="370" width="120" height="80" as="geometry" />
        </mxCell>
        <mxCell id="IZim5jHVXSEnmy_kidDX-10" value="Mensaje de &quot;Cuenta creada con éxito&quot;" style="ellipse;whiteSpace=wrap;html=1;fillColor=#B9E0A5;" vertex="1" parent="1">
          <mxGeometry x="640" y="370" width="120" height="80" as="geometry" />
        </mxCell>
        <mxCell id="IZim5jHVXSEnmy_kidDX-20" value="Sistema" style="shape=umlActor;verticalLabelPosition=bottom;verticalAlign=top;html=1;outlineConnect=0;fillColor=#E6D0DE;" vertex="1" parent="1">
          <mxGeometry x="850" y="140" width="70" height="130" as="geometry" />
        </mxCell>
        <mxCell id="IZim5jHVXSEnmy_kidDX-29" style="rounded=0;orthogonalLoop=1;jettySize=auto;html=1;exitX=0.5;exitY=1;exitDx=0;exitDy=0;entryX=0.5;entryY=0;entryDx=0;entryDy=0;" edge="1" parent="1" source="IZim5jHVXSEnmy_kidDX-26" target="IZim5jHVXSEnmy_kidDX-4">
          <mxGeometry relative="1" as="geometry" />
        </mxCell>
        <mxCell id="IZim5jHVXSEnmy_kidDX-30" value="Si" style="edgeLabel;html=1;align=center;verticalAlign=middle;resizable=0;points=[];" connectable="0" vertex="1" parent="IZim5jHVXSEnmy_kidDX-29">
          <mxGeometry x="-0.2059" y="4" relative="1" as="geometry">
            <mxPoint as="offset" />
          </mxGeometry>
        </mxCell>
        <mxCell id="IZim5jHVXSEnmy_kidDX-33" style="rounded=0;orthogonalLoop=1;jettySize=auto;html=1;exitX=0.5;exitY=1;exitDx=0;exitDy=0;" edge="1" parent="1" source="IZim5jHVXSEnmy_kidDX-26" target="IZim5jHVXSEnmy_kidDX-32">
          <mxGeometry relative="1" as="geometry" />
        </mxCell>
        <mxCell id="IZim5jHVXSEnmy_kidDX-34" value="No" style="edgeLabel;html=1;align=center;verticalAlign=middle;resizable=0;points=[];" connectable="0" vertex="1" parent="IZim5jHVXSEnmy_kidDX-33">
          <mxGeometry x="-0.0882" y="6" relative="1" as="geometry">
            <mxPoint as="offset" />
          </mxGeometry>
        </mxCell>
        <mxCell id="IZim5jHVXSEnmy_kidDX-26" value="Comprobar si las credenciales corresponden a un usuario en la base de datos" style="ellipse;whiteSpace=wrap;html=1;fillColor=#E6D0DE;" vertex="1" parent="1">
          <mxGeometry x="510" y="-35" width="140" height="90" as="geometry" />
        </mxCell>
        <mxCell id="IZim5jHVXSEnmy_kidDX-28" value="" style="endArrow=none;dashed=1;html=1;dashPattern=1 3;strokeWidth=2;rounded=0;exitX=0.977;exitY=0.624;exitDx=0;exitDy=0;exitPerimeter=0;" edge="1" parent="1" source="IZim5jHVXSEnmy_kidDX-26">
          <mxGeometry width="50" height="50" relative="1" as="geometry">
            <mxPoint x="720" y="80" as="sourcePoint" />
            <mxPoint x="840" y="200" as="targetPoint" />
          </mxGeometry>
        </mxCell>
        <mxCell id="IZim5jHVXSEnmy_kidDX-32" value="Mensaje de &quot;Contraseña o usuario incorrecto&quot;" style="ellipse;whiteSpace=wrap;html=1;fillColor=#E6D0DE;" vertex="1" parent="1">
          <mxGeometry x="515" y="115" width="130" height="80" as="geometry" />
        </mxCell>
        <mxCell id="IZim5jHVXSEnmy_kidDX-37" value="" style="endArrow=classic;html=1;rounded=0;entryX=0;entryY=0.5;entryDx=0;entryDy=0;" edge="1" parent="1" target="IZim5jHVXSEnmy_kidDX-7">
          <mxGeometry width="50" height="50" relative="1" as="geometry">
            <mxPoint x="40" y="240" as="sourcePoint" />
            <mxPoint x="470" y="230" as="targetPoint" />
          </mxGeometry>
        </mxCell>
        <mxCell id="IZim5jHVXSEnmy_kidDX-38" value="Validar campos del formulario" style="ellipse;whiteSpace=wrap;html=1;fillColor=#E6D0DE;" vertex="1" parent="1">
          <mxGeometry x="480" y="260" width="130" height="80" as="geometry" />
        </mxCell>
        <mxCell id="IZim5jHVXSEnmy_kidDX-39" value="" style="endArrow=none;dashed=1;html=1;dashPattern=1 3;strokeWidth=2;rounded=0;exitX=1;exitY=0.5;exitDx=0;exitDy=0;" edge="1" parent="1" source="IZim5jHVXSEnmy_kidDX-38">
          <mxGeometry width="50" height="50" relative="1" as="geometry">
            <mxPoint x="420" y="280" as="sourcePoint" />
            <mxPoint x="820" y="250" as="targetPoint" />
          </mxGeometry>
        </mxCell>
        <mxCell id="IZim5jHVXSEnmy_kidDX-42" style="edgeStyle=none;rounded=0;orthogonalLoop=1;jettySize=auto;html=1;exitX=0.5;exitY=1;exitDx=0;exitDy=0;entryX=0.418;entryY=0.048;entryDx=0;entryDy=0;entryPerimeter=0;" edge="1" parent="1" source="IZim5jHVXSEnmy_kidDX-38" target="IZim5jHVXSEnmy_kidDX-9">
          <mxGeometry relative="1" as="geometry" />
        </mxCell>
      </root>
    </mxGraphModel>
  </diagram>
</mxfile>
